<svg width="16" height="16" viewBox="0 0 16 16" fill="none" xmlns="http://www.w3.org/2000/svg">
<rect x="0.5" y="0.5" width="15" height="15" rx="3.5" fill="white"/>
<rect x="0.5" y="0.5" width="15" height="15" rx="3.5" stroke="#443731"/>
<path d="M12.0473 4.00135L11.2888 3.48573C11.0789 3.3436 10.7913 3.39814 10.6508 3.60637L6.93238 9.08984L5.22355 7.38101C5.04506 7.20252 4.7542 7.20252 4.57571 7.38101L3.92622 8.0305C3.74774 8.20898 3.74774 8.49985 3.92622 8.67999L6.55393 11.3077C6.70101 11.4548 6.93238 11.5672 7.14062 11.5672C7.34885 11.5672 7.55873 11.4366 7.69425 11.2399L12.1696 4.63762C12.3117 4.42939 12.2572 4.14348 12.0473 4.00135Z" fill="#443731"/>
</svg>
