<svg width="24" height="24" viewBox="0 0 24 24" fill="none" xmlns="http://www.w3.org/2000/svg">
<g clip-path="url(#clip0_3_610)">
<path d="M6.256 8.118C7.48 8.118 8.392 8.388 8.992 8.928C9.592 9.456 9.892 10.29 9.892 11.43V18H8.542L8.164 16.65H8.092C7.816 16.998 7.528 17.286 7.228 17.514C6.94 17.742 6.604 17.91 6.22 18.018C5.848 18.126 5.392 18.18 4.852 18.18C4.276 18.18 3.754 18.078 3.286 17.874C2.83 17.658 2.47 17.334 2.206 16.902C1.942 16.458 1.81 15.906 1.81 15.246C1.81 14.262 2.182 13.512 2.926 12.996C3.682 12.48 4.828 12.198 6.364 12.15L8.02 12.096V11.556C8.02 10.836 7.858 10.332 7.534 10.044C7.21 9.756 6.754 9.612 6.166 9.612C5.662 9.612 5.182 9.684 4.726 9.828C4.27 9.972 3.838 10.146 3.43 10.35L2.818 8.964C3.274 8.724 3.796 8.526 4.384 8.37C4.984 8.202 5.608 8.118 6.256 8.118ZM6.706 13.374C5.602 13.422 4.834 13.608 4.402 13.932C3.982 14.244 3.772 14.688 3.772 15.264C3.772 15.768 3.922 16.134 4.222 16.362C4.534 16.59 4.924 16.704 5.392 16.704C6.148 16.704 6.772 16.494 7.264 16.074C7.756 15.654 8.002 15.024 8.002 14.184V13.338L6.706 13.374ZM14.7379 7.614C14.7379 8.01 14.7259 8.388 14.7019 8.748C14.6899 9.096 14.6719 9.372 14.6479 9.576H14.7379C15.0139 9.168 15.3859 8.826 15.8539 8.55C16.3219 8.274 16.9279 8.136 17.6719 8.136C18.8359 8.136 19.7719 8.556 20.4799 9.396C21.1999 10.236 21.5599 11.484 21.5599 13.14C21.5599 14.256 21.3979 15.186 21.0739 15.93C20.7499 16.674 20.2939 17.238 19.7059 17.622C19.1179 17.994 18.4339 18.18 17.6539 18.18C16.8979 18.18 16.2919 18.048 15.8359 17.784C15.3799 17.508 15.0139 17.184 14.7379 16.812H14.5939L14.2339 18H12.8299V4.32H14.7379V7.614ZM17.2219 9.684C16.5979 9.684 16.1059 9.804 15.7459 10.044C15.3859 10.284 15.1279 10.65 14.9719 11.142C14.8159 11.634 14.7379 12.258 14.7379 13.014V13.158C14.7379 14.274 14.9179 15.132 15.2779 15.732C15.6379 16.32 16.2979 16.614 17.2579 16.614C18.0259 16.614 18.6079 16.314 19.0039 15.714C19.3999 15.114 19.5979 14.25 19.5979 13.122C19.5979 11.982 19.3999 11.124 19.0039 10.548C18.6079 9.972 18.0139 9.684 17.2219 9.684Z" fill="#443731"/>
<rect x="-0.15" y="10.85" width="24.3" height="1.8" fill="#443731" stroke="#CFB094" stroke-width="0.3"/>
</g>
<defs>
<clipPath id="clip0_3_610">
<rect width="24" height="24" fill="white"/>
</clipPath>
</defs>
</svg>
